<svg xmlns="http://www.w3.org/2000/svg" xmlns:xlink="http://www.w3.org/1999/xlink" width="167.716" height="70" viewBox="0 0 167.716 70">
  <defs>
    <linearGradient id="linear-gradient" x1="0.5" x2="0.5" y2="1" gradientUnits="objectBoundingBox">
      <stop offset="0.255" stop-color="#c4000b"/>
      <stop offset="0.409" stop-color="#ad0007"/>
      <stop offset="0.724" stop-color="#750000"/>
    </linearGradient>
    <linearGradient id="linear-gradient-2" y1="0.5" x2="1" y2="0.5" gradientUnits="objectBoundingBox">
      <stop offset="0" stop-color="#a3a3a3"/>
      <stop offset="0.242" stop-color="#fff"/>
      <stop offset="0.589" stop-color="#fdfdfd"/>
      <stop offset="0.714" stop-color="#f6f6f6"/>
      <stop offset="0.803" stop-color="#eaeaea"/>
      <stop offset="0.875" stop-color="#d9d9d9"/>
      <stop offset="0.936" stop-color="#c3c3c3"/>
      <stop offset="0.99" stop-color="#a9a9a9"/>
      <stop offset="1" stop-color="#a3a3a3"/>
    </linearGradient>
    <linearGradient id="linear-gradient-3" y1="0.5" x2="1" y2="0.5" gradientUnits="objectBoundingBox">
      <stop offset="0" stop-color="#1d491d"/>
      <stop offset="0.162" stop-color="#1d4a1d"/>
      <stop offset="0.22" stop-color="#205120"/>
      <stop offset="0.242" stop-color="#225722"/>
      <stop offset="0.748" stop-color="#215521"/>
      <stop offset="0.93" stop-color="#1e4e1e"/>
      <stop offset="1" stop-color="#1d491d"/>
    </linearGradient>
    <linearGradient id="linear-gradient-4" x1="-2.154" y1="0.393" x2="-1.21" y2="0.393" gradientUnits="objectBoundingBox">
      <stop offset="0.03" stop-color="#bd1813"/>
      <stop offset="1" stop-color="#7f1311"/>
    </linearGradient>
    <linearGradient id="linear-gradient-5" x1="-1.849" y1="0.44" x2="-0.834" y2="0.44" xlink:href="#linear-gradient-4"/>
    <linearGradient id="linear-gradient-6" x1="-0.382" y1="0.317" x2="0.622" y2="0.317" gradientUnits="objectBoundingBox">
      <stop offset="0.03" stop-color="#bd1813"/>
      <stop offset="0.61" stop-color="#7f1311"/>
      <stop offset="0.995" stop-color="#6e110e"/>
    </linearGradient>
    <linearGradient id="linear-gradient-7" x1="-0.879" y1="0.094" x2="0.091" y2="0.094" gradientUnits="objectBoundingBox">
      <stop offset="0.269" stop-color="#d31312"/>
      <stop offset="1" stop-color="#930d0d"/>
    </linearGradient>
    <linearGradient id="linear-gradient-8" x1="-0.584" y1="0.114" x2="0.474" y2="0.685" xlink:href="#linear-gradient-7"/>
    <linearGradient id="linear-gradient-9" x1="-0.228" y1="0.094" x2="0.698" y2="0.824" gradientUnits="objectBoundingBox">
      <stop offset="0" stop-color="#f2f2f2"/>
      <stop offset="0.824" stop-color="#bcbcbc"/>
      <stop offset="1" stop-color="#7a7a7a"/>
    </linearGradient>
    <linearGradient id="linear-gradient-10" x1="0.367" y1="0.004" x2="0.514" y2="1.012" gradientUnits="objectBoundingBox">
      <stop offset="0" stop-color="#e6e6e6"/>
      <stop offset="1" stop-color="#bcbcbc"/>
    </linearGradient>
    <linearGradient id="linear-gradient-11" x1="0.381" y1="0.283" x2="0.387" y2="0.918" gradientUnits="objectBoundingBox">
      <stop offset="0" stop-color="#f2f2f2"/>
      <stop offset="0.709" stop-color="#bcbcbc"/>
      <stop offset="1" stop-color="#7a7a7a"/>
    </linearGradient>
    <linearGradient id="linear-gradient-12" x1="0.386" y1="0.263" x2="0.611" y2="0.738" xlink:href="#linear-gradient-11"/>
    <linearGradient id="linear-gradient-13" x1="0.469" y1="0.276" x2="0.8" y2="0.808" xlink:href="#linear-gradient-11"/>
    <linearGradient id="linear-gradient-14" x1="0.632" y1="0.164" x2="0.867" y2="0.752" xlink:href="#linear-gradient-11"/>
    <linearGradient id="linear-gradient-15" x1="0.432" y1="0.432" x2="1.382" y2="0.432" xlink:href="#linear-gradient-11"/>
    <linearGradient id="linear-gradient-16" x1="0.195" y1="0.506" x2="1.187" y2="0.155" xlink:href="#linear-gradient-11"/>
    <linearGradient id="linear-gradient-17" x1="0.76" y1="0.622" x2="-0.284" y2="0.175" gradientUnits="objectBoundingBox">
      <stop offset="0" stop-color="#e6e6e6"/>
      <stop offset="0.709" stop-color="#bcbcbc"/>
      <stop offset="1" stop-color="#7a7a7a"/>
    </linearGradient>
    <linearGradient id="linear-gradient-18" x1="0.591" y1="0.394" x2="1.661" y2="0.149" gradientUnits="objectBoundingBox">
      <stop offset="0" stop-color="#d9d9d9"/>
      <stop offset="0.709" stop-color="#bcbcbc"/>
      <stop offset="1" stop-color="#7a7a7a"/>
    </linearGradient>
    <linearGradient id="linear-gradient-19" x1="0.342" y1="0.626" x2="0.765" y2="0.041" xlink:href="#linear-gradient-17"/>
    <linearGradient id="linear-gradient-20" x1="0.034" y1="0.619" x2="0.797" y2="0.117" gradientUnits="objectBoundingBox">
      <stop offset="0" stop-color="#f2f2f2"/>
      <stop offset="1" stop-color="#bcbcbc"/>
    </linearGradient>
    <linearGradient id="linear-gradient-21" x1="0.61" y1="-0.012" x2="0.61" y2="0.913" xlink:href="#linear-gradient-4"/>
  </defs>
  <g id="Gruppe_653" data-name="Gruppe 653" transform="translate(-125.207 -134.197)">
    <g id="Gruppe_654" data-name="Gruppe 654" transform="translate(125.207 134.197)">
      <g id="Gruppe_653-2" data-name="Gruppe 653" transform="translate(0)">
        <path id="Pfad_1067" data-name="Pfad 1067" d="M226.154,197.669a25.7,25.7,0,0,1-6.265-.732,19.486,19.486,0,0,1-11.24-8,1.872,1.872,0,0,1-.205-.248c-.091-.131-.174-.272-.257-.412l-.083-.14c-.129-.185-.193-.28-.254-.378a1.858,1.858,0,0,1-.135-.258,25.36,25.36,0,0,1-2.034-4.242,1.983,1.983,0,0,1-.14-.305c-.053-.147-.1-.3-.143-.45l-.056-.183c-.125-.377-.245-.759-.356-1.15-.106-.363-.2-.749-.291-1.136l-.118-.46c-.061-.223-.1-.348-.121-.479a2.011,2.011,0,0,1-.037-.253l-.026-.117c-.062-.278-.125-.556-.174-.842a29.886,29.886,0,0,1-.5-5.453q0-1.074.072-2.118a15.457,15.457,0,0,1-4.616,3.88,25.086,25.086,0,0,1-11.754,2.5H185.7v10.323c0,3.485,0,3.485,3.411,3.586a2.092,2.092,0,0,1,2.027,2.09V194.2a2.09,2.09,0,0,1-2.089,2.09H166.27a2.09,2.09,0,0,1-2.09-2.09V192.69a2.092,2.092,0,0,1,2.027-2.09c3.407-.1,3.407-.1,3.407-3.586V157.132c0-3.368,0-3.455-3.159-3.574l.358,8.806a2.09,2.09,0,0,1-2.088,2.175h-1.517a2.091,2.091,0,0,1-2.047-1.67c-1.332-6.5-3.811-8.28-11.526-8.28H147.14c-.167,0-.3.007-.389.016a6.753,6.753,0,0,0-.049.922V167.61c3.862-.488,5.357-2.6,6.027-7.832a2.091,2.091,0,0,1,2.073-1.825h1.516a2.09,2.09,0,0,1,2.089,2.09v21.863a2.089,2.089,0,0,1-2.089,2.089H154.8a2.091,2.091,0,0,1-2.073-1.826c-.669-5.253-2.164-7.368-6.027-7.859v12.765c0,2.69,0,3.414,5.027,3.525a2.091,2.091,0,0,1,2.043,2.09V194.2a2.09,2.09,0,0,1-2.09,2.09H127.3a2.09,2.09,0,0,1-2.089-2.09V192.69a2.092,2.092,0,0,1,2.027-2.09c3.408-.1,3.408-.1,3.408-3.586l-.03-29.88c0-3.46,0-3.46-3.393-3.586a2.09,2.09,0,0,1-2.012-2.088v-1.487a2.09,2.09,0,0,1,2.089-2.089h36.922a2.079,2.079,0,0,1,1.026.268,2.085,2.085,0,0,1,1.026-.268h18.653c6.194,0,11.618.181,15.285,2.413,3.869,2.3,5.921,5.377,6.352,9.572A22.527,22.527,0,0,1,222.512,147.6a2.088,2.088,0,0,1,2.493,2.05v4.311a2.087,2.087,0,0,1-.619,1.483c-2.46,2.441-3.847,8.38-3.924,16.769a87.855,87.855,0,0,0,12.771-8.222c-.65-4.095-1.784-7.036-3.3-8.552a2.088,2.088,0,0,1-.613-1.477v-4.311a2.09,2.09,0,0,1,2.482-2.053,22.228,22.228,0,0,1,13.187,7.919,87.27,87.27,0,0,1,11.953-6.852,2.086,2.086,0,0,1,2.005.136c.061-.406.1-.631.1-.644a2.09,2.09,0,0,1,1.222-1.6l9.779-4.327a2.085,2.085,0,0,1,.715-.5l3.5-1.5,2.79-1.281a2.1,2.1,0,0,1,.859-.191l9.889-4.376a2.088,2.088,0,0,1,2.588.756l2.193,3.307a2.1,2.1,0,0,1,.32,1.5c-.014.077-1.275,7.582-2.895,16.024a1.893,1.893,0,0,1-.022.6l-1.612,7.985a2.089,2.089,0,0,1-.2.567c-1.16,5.476-2.169,9.579-3,12.2-2.163,6.851-7.967,10.77-12.581,12.874a2.139,2.139,0,0,1-.272.151,26.858,26.858,0,0,1-7.66,2.441,18.352,18.352,0,0,1-3.126.36,1.976,1.976,0,0,1-.207-.007h-.054a6.678,6.678,0,0,1-4.1-1.23,2.136,2.136,0,0,1-1.961,1.279c-5.171.063-10.133,1.205-14.931,2.308a93.235,93.235,0,0,1-9.762,1.891c-.468.064-.974.119-1.488.158C228.051,197.625,227.077,197.669,226.154,197.669Zm-14.365-11.512a1.809,1.809,0,0,1,.148.186,15.446,15.446,0,0,0,8.956,6.538,23.61,23.61,0,0,0,7.8.5c.449-.032.868-.079,1.283-.136a89.769,89.769,0,0,0,9.356-1.819,89.414,89.414,0,0,1,12.522-2.25c-.995-3.9-.481-9.447-.227-11.557.613-4.921,1.472-10.883,2.552-17.731.317-2.013.624-3.913.9-5.623a98.3,98.3,0,0,0-9.4,5.831,2.09,2.09,0,0,1-2.926-.556,17.939,17.939,0,0,0-9.265-7.186v.8c2.016,2.425,3.378,6.289,4.051,11.507a2.087,2.087,0,0,1-.83,1.948c-6.04,4.467-11.527,8.356-17.515,10.733a2.091,2.091,0,0,1-2.859-1.841c-.041-.852-.069-1.7-.069-2.536,0-9.564,1.529-16.223,4.548-19.817v-.777c-7.832,2.711-12.931,10.458-12.931,20.059a25.837,25.837,0,0,0,.437,4.711c.042.243.091.455.139.667l.1.435a1.625,1.625,0,0,1,.03.182c.026.1.043.162.059.23l.047.178c.006.019.048.189.053.208.08.336.156.657.246.967.1.343.2.668.308.99l.1.317a2.065,2.065,0,0,1,.1.23,21.181,21.181,0,0,0,1.929,4.027,1.865,1.865,0,0,1,.1.177l.084.125C211.674,185.959,211.732,186.059,211.789,186.157Zm-38.946,5.957h9.631a10.611,10.611,0,0,1-.951-5.1V174.6a2.081,2.081,0,0,1,.46-1.309,2.075,2.075,0,0,1-.46-1.308V155.41a5.725,5.725,0,0,1,.832-3.346h-9.511a10.525,10.525,0,0,1,.948,5.068v29.882A10.634,10.634,0,0,1,172.844,192.114Zm-38.973,0h9.94a8.438,8.438,0,0,1-1.287-5.039V172.1a2.077,2.077,0,0,1,.34-1.143,2.088,2.088,0,0,1-.34-1.146V155.528a6.114,6.114,0,0,1,.805-3.464h-9.481a10.581,10.581,0,0,1,.944,5.068l.03,29.879A10.616,10.616,0,0,1,133.87,192.114Zm127.659-3.162c.049,0,.1,0,.146.006a15.732,15.732,0,0,0,2.341-.309,1.943,1.943,0,0,1,.314-.038,24.4,24.4,0,0,0,5.944-1.937,2.233,2.233,0,0,1,.3-.161c3.876-1.721,8.863-4.931,10.608-10.455.819-2.588,1.835-6.757,3.02-12.4a2.116,2.116,0,0,1,.191-.535l1.385-6.858a1.883,1.883,0,0,1,.022-.565c1.347-6.989,2.462-13.431,2.841-15.645l-.762-1.148-9.138,4.044a2.094,2.094,0,0,1-.8.178l-2.485,1.131-2.381,1.016a2.075,2.075,0,0,1-.675.477l-9.388,4.153c-.4,2.664-1.416,9.654-2.332,16.92a2.087,2.087,0,0,1-.354.926c-.245,1.972-.482,3.958-.7,5.881a2.084,2.084,0,0,1,.131.982,101.338,101.338,0,0,0-.818,11.852c.072,2.087.874,2.483,2.324,2.483l.2,0ZM150.281,170.962a9.041,9.041,0,0,1,3.947,2.959v-5.914A9.055,9.055,0,0,1,150.281,170.962ZM191.9,152.287c2.828,2.665,2.828,7.467,2.828,9.687,0,4-.532,8.051-3.522,10.3a17.016,17.016,0,0,0,5.926-1.739,9.713,9.713,0,0,0,5.33-8.92,8.125,8.125,0,0,0-4.416-7.741A14.792,14.792,0,0,0,191.9,152.287Zm-6.157,2.349a5.13,5.13,0,0,0-.045.774v14.454c3.823-.248,4.851-2.082,4.851-7.89,0-6.207-1.405-7.384-4-7.384A5.547,5.547,0,0,0,185.747,154.635Zm-26.9-2.572a10.156,10.156,0,0,1,3.483,2.892l-.117-2.892Z" transform="translate(-125.207 -134.197)" fill="#fff"/>
      </g>
    </g>
    <path id="Pfad_1068" data-name="Pfad 1068" d="M632.206,141.559c-.574,3.582-5.865,31.319-8.72,40.347-2.786,8.823-12.127,12.528-13.7,13.171-.336.159-3.895.944-4.73,1.248a26.669,26.669,0,0,0,7.62-1.688c1.571-.642,11.273-3.856,14.059-12.677,3.064-9.688,7.663-37.093,7.663-37.093Z" transform="translate(-343.566 -5.271)" fill="#153615"/>
    <path id="Pfad_1069" data-name="Pfad 1069" d="M606.949,147.542l-.486.213-13.523,5.983s-4.541,29.871-4.259,38.079c.258,7.476,9.141,3.575,10.731,2.819,1.571-.642,10.461-4.6,13.247-13.426,3.064-9.687,7.813-39.65,7.813-39.65Z" transform="translate(-331.832 -5.271)" fill="#225722"/>
    <path id="Pfad_1070" data-name="Pfad 1070" d="M132.564,189.747v1.487c3.981.147,5.405.5,5.405,5.671l.03,29.882c0,5.2-1.454,5.556-5.435,5.676v1.514H156.95v-1.514c-5.317-.12-7.07-1.069-7.07-5.615V211.876c7.012,0,9.357,3.271,10.19,9.8h1.515V199.816H160.07c-.833,6.507-3.178,9.772-10.19,9.772V195.3c0-2.259.477-3.028,2.528-3.028H154.9c8.2,0,11.941,1.989,13.573,9.95h1.517l-.506-12.475Z" transform="translate(-5.268 -39.773)" fill="#004c9b"/>
    <path id="Pfad_1071" data-name="Pfad 1071" d="M434.591,188.6v4.311c3.982,3.977,4.545,13.57,4.545,19.005,0,9.421-2.732,20.35-8.76,20.35-6.092,0-8.827-10.929-8.827-20.35,0-5.435.536-15.028,4.548-19.005V188.6c-10.277,2.021-17.11,11.111-17.11,22.782,0,13.161,8.763,23.114,21.389,23.114,12.564,0,21.351-9.953,21.351-23.114C451.727,199.706,444.868,190.556,434.591,188.6Z" transform="translate(-203.183 -38.948)" fill="#d9000d"/>
    <path id="Pfad_1072" data-name="Pfad 1072" d="M434.591,188.6v4.311c3.982,3.977,4.545,13.57,4.545,19.005,0,9.421-2.732,20.35-8.76,20.35-6.092,0-8.827-10.929-8.827-20.35,0-5.435.536-15.028,4.548-19.005V188.6c-10.277,2.021-17.11,11.111-17.11,22.782,0,13.161,8.763,23.114,21.389,23.114,12.564,0,21.351-9.953,21.351-23.114C451.727,199.706,444.868,190.556,434.591,188.6Z" transform="translate(-203.183 -38.948)" fill="url(#linear-gradient)"/>
    <path id="Pfad_1073" data-name="Pfad 1073" d="M462.68,188.66c-20.431,10.332-33.742,29-52.069,27.809a27.112,27.112,0,0,0,1.012,4.086,23.212,23.212,0,0,0,2.887,5.942l.022.011a17.542,17.542,0,0,0,10.2,7.4c10.973,2.717,23.447-3.646,36.23-3.8C455.69,227.523,462.109,192.056,462.68,188.66Z" transform="translate(-204.345 -38.995)" fill-rule="evenodd" fill="url(#linear-gradient-2)"/>
    <path id="Pfad_1074" data-name="Pfad 1074" d="M302.638,191.855c-3.268-1.989-8.642-2.108-14.2-2.108H269.787v1.487c4.008.147,5.434.5,5.434,5.671v29.882c0,5.2-1.426,5.556-5.434,5.676v1.514h22.781v-1.514c-4.008-.12-5.438-.475-5.438-5.676V214.374h3.8a23.05,23.05,0,0,0,10.726-2.231,11.782,11.782,0,0,0,6.414-10.752A10.158,10.158,0,0,0,302.638,191.855Zm-14.436,19.9H287.13V195.183c0-2.318.657-2.91,2.944-2.91,5.495,0,6.087,4.9,6.087,9.474C296.161,208.193,294.8,211.758,288.2,211.758Z" transform="translate(-103.517 -39.773)" fill="#004c9b"/>
    <path id="Pfad_1075" data-name="Pfad 1075" d="M467.306,286.13c-3.17-1.768-1.771-16.027-1.364-19.275-15.97,1.89-31.825,17.459-46.478,13.511a21.32,21.32,0,0,0,1.293,2.148l.022.011a17.618,17.618,0,0,0,10.162,7.517C441.937,292.764,454.5,286.284,467.306,286.13Z" transform="translate(-210.684 -94.981)" fill-rule="evenodd" fill="url(#linear-gradient-3)"/>
    
    <g id="Gruppe_660" data-name="Gruppe 660" transform="translate(260.192 145.847)">
      <g id="Gruppe_657" data-name="Gruppe 657" transform="translate(5.238 0)">
        <path id="Pfad_1098" data-name="Pfad 1098" d="M651.991,176.663a3.3,3.3,0,0,1,.307-1.448,1.389,1.389,0,0,0-1.148.92A5.478,5.478,0,0,1,651.991,176.663Z" transform="translate(-641.998 -175.215)" fill="url(#linear-gradient-4)"/>
        <path id="Pfad_1099" data-name="Pfad 1099" d="M656.984,178.49c.169-.026.446-.1.756-.127a1.72,1.72,0,0,0-.172-1.491c-.2.568-.84.813-.931,1.491A.6.6,0,0,0,656.984,178.49Z" transform="translate(-645.927 -176.401)" fill="url(#linear-gradient-5)"/>
        <g id="Gruppe_656" data-name="Gruppe 656" transform="translate(0 1.822)">
          <path id="Pfad_1100" data-name="Pfad 1100" d="M622.21,189.676c.855.492,1.573-.3,2.076-.747.455-.774,1.373.1,1.565-.934.083-.472-.036-.986-.426-.951a2.2,2.2,0,0,0-1.315,1.1.55.55,0,0,1-.069.346c-.917,1-1.267.1-1.755-.017a1.836,1.836,0,0,0-2.176,1.883A1.417,1.417,0,0,1,622.21,189.676Z" transform="translate(-619.774 -185.505)" fill="url(#linear-gradient-6)"/>
          <path id="Pfad_1101" data-name="Pfad 1101" d="M623.766,195.929a1.842,1.842,0,0,0-.338-.153,3.577,3.577,0,0,0-1.145,1.756c.647-.938,1.461-.552,2.279-1.477A1.058,1.058,0,0,1,623.766,195.929Z" transform="translate(-621.33 -191.759)" fill="url(#linear-gradient-7)"/>
          <path id="Pfad_1102" data-name="Pfad 1102" d="M618.926,184.879a1.367,1.367,0,0,1,1.99-.316,1.558,1.558,0,0,1,.522.034c.488.119.838,1.013,1.755.017a.55.55,0,0,0,.069-.346,2.107,2.107,0,0,1,.2-.32c-.188-1.439-2.119-3.867-4.3-.94,1.678-1.621,2.464.7,3.022,1.161C621.619,184.221,620.026,182.332,618.926,184.879Z" transform="translate(-618.926 -181.631)" fill="url(#linear-gradient-8)"/>
        </g>
      </g>
      <g id="Gruppe_659" data-name="Gruppe 659" transform="translate(0.289 0.726)">
        <path id="Pfad_1103" data-name="Pfad 1103" d="M612.863,199.024a4.793,4.793,0,0,1,1.055-.7.685.685,0,0,1-.522-.315c.554-.076,1.221-1,2.012-1.811a9.777,9.777,0,0,0-2.95-1.32,5.056,5.056,0,0,1-1.781-2.3,7.906,7.906,0,0,0,.065-1.638c-.143-.655-.018-1.222-.8-.744.112.48-.193.693-.247,1.246-.139-.466-.509-1.015-.887-.328-.081.245-.507,1.189.057,1.137.247-.022.534.1.456.393-.088.359-.331.734-.2,1.012.259.466.685.131.895,0a.252.252,0,0,1,.389.169c.1.332-.122.623-.129,1-.007.4-.087.509.212.623.189.105.345-.219.387-.473.542-.049.44.805.43,1.447a1.6,1.6,0,0,0,.294.921C611.906,197.926,612.3,198.823,612.863,199.024Z" transform="translate(-606.564 -186.541)" fill="url(#linear-gradient-9)"/>
        <path id="Pfad_1104" data-name="Pfad 1104" d="M663.332,187.475c-.679.769-1.834-.487-3.37.164-.382.162-3.861,1.9-3.435,9.155s3.632,11.53,1.483,13.193c-.682.528-1.669-.254-1.72-2.446-.061.382-.41,1.563-.378,1.6.111,1.241,1.053,2.445,2.273,1.59,2.934-2.061-.694-8.478-.975-13.838-.269-5.133,1.378-7.847,2.874-8.6,0,0,.739,3.05,2.614.991-.489.315-.793-.162-1.093-.559A1.453,1.453,0,0,0,663.332,187.475Zm-7.044,19.948c0,.041,0,.08,0,.119C656.3,207.466,656.3,207.421,656.288,207.422Z" transform="translate(-640.456 -184.696)" fill="url(#linear-gradient-10)"/>
        <g id="Gruppe_658" data-name="Gruppe 658" transform="translate(14.46 6.671)">
          <path id="Pfad_1105" data-name="Pfad 1105" d="M659.076,201.258c.954,2.513-1.34,3.285-2.819,3.091-1.733-.228-2.426.358-2.576,1.42a1.226,1.226,0,0,0,.774,1.371,1.388,1.388,0,0,1-1.554-1.034c-.55-1.911,1.6-3.229,3.314-3,2.052.269,3.137-.163,2.861-1.846Z" transform="translate(-652.699 -201.258)" fill="url(#linear-gradient-11)"/>
          <path id="Pfad_1106" data-name="Pfad 1106" d="M658.877,212.071c1.031,2.568-1.349,3.431-2.894,3.272-1.81-.186-2.524.44-2.665,1.54a1.246,1.246,0,0,0,.828,1.393,1.426,1.426,0,0,1-1.636-1.024c-.6-1.958,1.617-3.38,3.411-3.195,2.143.22,3.268-.257,2.956-1.987Z" transform="translate(-652.41 -209)" fill="url(#linear-gradient-12)"/>
          <path id="Pfad_1107" data-name="Pfad 1107" d="M660.141,224.256c.795,2.589-1.192,3.416-2.464,3.233-1.493-.215-2.083.454-2.153,1.222a1.49,1.49,0,0,0,1.348,1.564,1.516,1.516,0,0,1-2.108-.927,2.638,2.638,0,0,1,2.89-3.147c1.766.254,2.708-.207,2.487-1.945Z" transform="translate(-654.046 -217.724)" fill="url(#linear-gradient-13)"/>
          <path id="Pfad_1108" data-name="Pfad 1108" d="M662.719,241.4a1.629,1.629,0,0,1-1.394.169c-.523-.126-1.23.681-1.1,1.174.083.317.376.275.641.058.054.219.11.425.15.613-.829.8-1.418.182-1.428-.532-.02-1.358,1.2-2.858,2.6-2.438.348.105.911.135,1.54-.847C663.721,239.6,663.336,241.1,662.719,241.4Z" transform="translate(-657.547 -228.707)" fill="url(#linear-gradient-14)"/>
          <path id="Pfad_1109" data-name="Pfad 1109" d="M663.891,253.717a1.349,1.349,0,0,1-1.156.139c-.434-.1-.758.317-.745.887.01.374.435.865.685.55l-.095.576c-.654.512-1.189-.281-1.2-.908-.016-1.126.909-2.386,2.063-2.038.289.087.757.112,1.278-.7C664.723,252.222,664.4,253.469,663.891,253.717Z" transform="translate(-658.834 -237.748)" fill="url(#linear-gradient-15)"/>
        </g>
        <path id="Pfad_1110" data-name="Pfad 1110" d="M614.382,260.615a10.066,10.066,0,0,0,.914-.566c.352.343,1.182-1.021,1.513-1.376.742-.8,1.709.337,2.63.432.465-.677.876-1.242,1-1.463a2.025,2.025,0,0,0-.014-2.019,1.31,1.31,0,0,0-.1-.154c-1.077-.015-3.194.082-3.531.113-.608.055-.949-.255-1.55.057-.256.131-.38.318-.638.428a2.957,2.957,0,0,0-1.739,1.805,3.746,3.746,0,0,1-1.6,2.085c.044.242.618.517,1.113.095a2.9,2.9,0,0,0-.417,1.409.909.909,0,0,0,.369.875c.517.313,1.292-.283,1.531.354a1.292,1.292,0,0,1,.122,1.1,3.231,3.231,0,0,1-1.368,1.837.579.579,0,0,0-1.019.255c-.274.556.744.551.556.644a1.236,1.236,0,0,0-.543,1.437c.353-.285.489-.585.86-.823.079.278-.43.945.211,1.013.352-.117.262-.739.34-.932.013-.328.146-.911.605-.871-.219,1.488.63.828.847.413.245-.552-.117-1.58.108-1.667a.465.465,0,0,0,.753.161s-.527-.2-.306-.987c.208-.019.082.628.495.644.317.012.3.585-.2.916,1.142-.306,1.054-2.339.636-2.631.327-.352.465.1.49.739a2.044,2.044,0,0,0-.148-1.8c.332.157.558.916,1.017.657C616.666,262.421,617.1,260.26,614.382,260.615Z" transform="translate(-608.492 -233.4)" fill="url(#linear-gradient-16)"/>
        <path id="Pfad_1111" data-name="Pfad 1111" d="M634.656,231.734c-.463-.012-.673-.783-.673-.783a3.217,3.217,0,0,1-1.176,2.527,2.5,2.5,0,0,0,.492-1.723c-.6,1.95-1.243,1.613-1.334,3.009,1.295.252,3.034-2.083,3.8-.194-.83-.469-2.37.881-3.26.675-.134.447.858.249.269.886-.2.414,1.661-.843,1.954-.107-.513-.226-1.706.742-2.212.788-.09.563,1.866-.811,1.828.389-.47-.556-1,.851-2.051,1.076-.046.359.593.143.893.115-.085.666-.888,1.085-1.449,1.3-.013.13.07.407.632.247-.382,1.111-1.455.784-1.828,1.592-.056.14.1.307.21.228.194-.129.478-.346.533-.129a1.446,1.446,0,0,1-.274.771c-.21.076-.288-.294-.489-.166s-.32-.324-.53-.159a1.167,1.167,0,0,0-.348.856c.118,1.132-.677,1-.911.327-.018.392-.31,1.293-.914,1.021-.54-.318-.089-1.053.062-1.392.13-.29-.575.059-.408-.208.252-1.288,1.152-.865,1.681-.886,1.29-1.463,1.83-2.205,1.916-2.656a15.364,15.364,0,0,0-.062-2.531,1.166,1.166,0,0,1-1.279-.125,7.712,7.712,0,0,0,0,1,3.108,3.108,0,0,1-.4-1.694,3.539,3.539,0,0,0-.188,2.5c-.725-.913-.559-3.205-.137-4.533s2.32-3.755,2.6-4.277a2.025,2.025,0,0,0-.014-2.019c-.7-1.366-4.34-1.634-4.728-4.047.163-.5,3.758-6.011,4.125-7.282l.461,2.9c1.062,6.812,4.078,6.843,4.155,8.655C635.7,229.954,634.242,230.738,634.656,231.734Z" transform="translate(-619.657 -205.233)" fill="url(#linear-gradient-17)"/>
        <path id="Pfad_1112" data-name="Pfad 1112" d="M640.361,254.426c.329.46-.237.348-.329,1.064a.675.675,0,0,0,.674.788c.126-.184.221-.328.269-.416a2.024,2.024,0,0,0-.014-2.019,2.356,2.356,0,0,0-.966-.862A1.669,1.669,0,0,0,640.361,254.426Z" transform="translate(-629.03 -231.619)" fill="url(#linear-gradient-18)"/>
        <path id="Pfad_1113" data-name="Pfad 1113" d="M611.031,222.832c.344-1.7.046-3.608-2.365-1.255-.671.061-3.739,3.564-4.488,4-.426.244-1.921-.643-2.591.586-.06.47-.2.515.064.784.306.318.464-.45,1.116-.1-.048.375-.622.545-.275,1.337.115.261.541-.015.781-.527.1.359.538.265.659.063.2-.321.084-.7.328-.968.2-.227.228-.063.466-.212.014.105-.229.395.056.669.419-.038.777-.78.88-1.292a2.526,2.526,0,0,0,1.358-1c.382.667,1.014,1.676,1.52,1.82C609.057,226.764,610.687,224.534,611.031,222.832Z" transform="translate(-601.498 -208.348)" fill="url(#linear-gradient-19)"/>
        <path id="Pfad_1114" data-name="Pfad 1114" d="M632.292,179.766c-.52-.17-.968.3-1.726.349.783.294.2,1.9.5,2.237-.44.04-.556-.5-.535-.809-.013-.334-.215.55-.087.906a1.784,1.784,0,0,1-.23,1.449c-.052-.608-.074-.891-.228-.882a5.908,5.908,0,0,1-.56,3.075,4.222,4.222,0,0,0,.077-1.558,7.566,7.566,0,0,1-.905,2.585,11.406,11.406,0,0,0-1.391,3.608,6.384,6.384,0,0,1-.088-1.931c-.289.759-.661,1.108-.957,1.86-.26.663-.033,1.061-.121,1.744-.645.059-.557-.919-.773-.92a3.168,3.168,0,0,1-1.219,2.741,2.713,2.713,0,0,0,.407-1.759,3.877,3.877,0,0,1-1.144,2.245c.328-.613.173-1.211.345-1.648-.273.208-.111.867-.467,1.491-.225.418-.585.6-.732.937-.011-.686.406-.886.519-1.652.176-.746-.137-.967.517-1.976a2.423,2.423,0,0,0-.659,1.723,3.389,3.389,0,0,1-1.062,2.171c.49-1.181-.235-1.7.259-2.846.157-.3.37-.858.209-1.071-.124,1.009-.475.878-.677,1.848-.2.643-1.018.092-1.444,1a3.37,3.37,0,0,1,.666-1.42c.613-.883.86-2.037,1.232-2.356-.343.091-.431.508-.627.882-.852,2.041-2.057,2.694-1.917,4.253-.753-2.51,1.428-3.223,1.919-5.022,0,0-1.717,1.624-2.439-.288.462.548,1.572-.865,2.395-1.176a.685.685,0,0,1-.522-.315c.986-.135,2.333-2.949,4.09-3.068-1.455-.195-.763-1.074-1.728-.782,1.344-.978,1.753.04,2.3-.044.622-.1.653-.849,1.485-1.4a2.426,2.426,0,0,0,1.041-1.228c-.627-.205-1.084-1.71-1.925-1.595-.514.134-.937,1.624-1.408,1.684a1.618,1.618,0,0,1-1.232-.5c.451-.8,1.381.093,1.574-.95.083-.472-.036-.986-.426-.951a2.206,2.206,0,0,0-1.357,1.185c-.177.093-.3-.449-.251-.67a1.189,1.189,0,0,0,.252-.1.54.54,0,0,0-.265-.6c.227-.608.821-.528,1.341-.574.5-.046.773-.546,1.283-.653.541-.114.472-.688,1.338-1.124,1.086-.547,2.6,1.335,3.065,1.263S631.779,178.633,632.292,179.766Z" transform="translate(-614 -177.77)" fill="url(#linear-gradient-20)"/>
      </g>
      <path id="Pfad_1115" data-name="Pfad 1115" d="M608.842,224.349a.836.836,0,0,0,.1,1.038,3.316,3.316,0,0,1,.3-.892C609.208,224.425,608.925,224.357,608.842,224.349Zm-.076-1.6a.885.885,0,0,0-.294.9,2.042,2.042,0,0,1,.477-.516A1.211,1.211,0,0,0,608.767,222.745Zm1.51,1.177c-.063.358.09.638.36.628a2.348,2.348,0,0,1,.016-.738A.982.982,0,0,0,610.277,223.922Zm1.937-1.218a.617.617,0,0,0-.294-.037,2.237,2.237,0,0,1-.144.621A.616.616,0,0,0,612.213,222.7ZM604,217.937a.858.858,0,0,0-.406.838,1.651,1.651,0,0,1,.52-.394A1.544,1.544,0,0,0,604,217.937Zm-.045,1.621a.962.962,0,0,0-.057,1.1,3.184,3.184,0,0,1,.414-.833C604.286,219.742,604.032,219.591,603.957,219.559Zm2.165-.48a2.27,2.27,0,0,1-.227.6c.215.031.43-.182.495-.477C606.344,219.164,606.172,219.063,606.122,219.079Zm-1.373.872c-.112.351-.011.682.241.749a2.612,2.612,0,0,1,.125-.755A.8.8,0,0,0,604.749,219.951Zm-4.263-15.417a1.635,1.635,0,0,1,.52-.394,1.567,1.567,0,0,0-.114-.444A.855.855,0,0,0,600.485,204.534Zm2.261.546a3.032,3.032,0,0,1-.135.747.911.911,0,0,0,.454-.783A.641.641,0,0,0,602.746,205.079Zm-.875-.06a.964.964,0,0,0-.057,1.1,3.183,3.183,0,0,1,.414-.833C602.2,205.2,601.947,205.051,601.871,205.019Zm2.226-.73a2.235,2.235,0,0,1-.227.6c.215.031.429-.182.495-.477C604.32,204.375,604.147,204.273,604.1,204.289Zm-.245-15.379a2.025,2.025,0,0,1,.27.789,2.085,2.085,0,0,0,.45-.4C604.515,188.875,604.2,188.7,603.853,188.91Zm-1.364,2.267a1.677,1.677,0,0,1,.728-.332,2.579,2.579,0,0,0-.046-.66A1.032,1.032,0,0,0,602.489,191.177Zm2.185,2.941a1.242,1.242,0,0,1-.437.288c.094.248.319.283.51.093A1.364,1.364,0,0,0,604.674,194.118Zm-1.073-1.371c-.025-.066-.133-.283-.184-.3a2.3,2.3,0,0,1-.47.513C603.125,193.128,603.412,193.028,603.6,192.747Z" transform="translate(-600.482 -184.955)" fill="url(#linear-gradient-21)"/>
      <path id="Pfad_1116" data-name="Pfad 1116" d="M644.084,180.446a1.535,1.535,0,0,1,1.79.531c-.619.3-1.054.748-1.257.522a2.055,2.055,0,0,1-.041-.812Z" transform="translate(-631.7 -178.89)" fill="#474d3b"/>
      <path id="Pfad_1117" data-name="Pfad 1117" d="M645.718,181.567c-.014.114-.091.213-.173.22s-.135-.079-.12-.193a.239.239,0,0,1,.173-.219C645.679,181.368,645.733,181.454,645.718,181.567Z" transform="translate(-632.659 -179.625)" fill="#f2f2f2"/>
    </g>
  </g>
</svg>