<?xml version="1.0" encoding="utf-8"?>
<!-- Generator: Adobe Illustrator 26.0.2, SVG Export Plug-In . SVG Version: 6.00 Build 0)  -->
<svg version="1.1"
	 id="svg2" sodipodi:docname="App_nochkeinefotos.eps" xmlns:cc="http://creativecommons.org/ns#" xmlns:dc="http://purl.org/dc/elements/1.1/" xmlns:inkscape="http://www.inkscape.org/namespaces/inkscape" xmlns:rdf="http://www.w3.org/1999/02/22-rdf-syntax-ns#" xmlns:sodipodi="http://sodipodi.sourceforge.net/DTD/sodipodi-0.dtd" xmlns:svg="http://www.w3.org/2000/svg"
	 xmlns="http://www.w3.org/2000/svg" xmlns:xlink="http://www.w3.org/1999/xlink" x="0px" y="0px" viewBox="0 0 682.4 921.5"
	 style="enable-background:new 0 0 682.4 921.5;" xml:space="preserve">
<style type="text/css">
	.st0{fill:#C9C9C9;}
	.st1{fill:#FFFFFF;}
	.st2{fill:#1F734F;}
	.st3{fill:#040606;}
	.st4{fill:#B2B2B2;}
	.st5{fill:#A3A8BA;}
	.st6{fill:#757C84;}
	.st7{clip-path:url(#SVGID_00000017511464122774592780000013820512090130198454_);}
	.st8{clip-path:url(#SVGID_00000152978050787218674490000010079228350822801056_);}
	.st9{clip-path:url(#SVGID_00000049944268321420601000000009469301358955590545_);}
	.st10{clip-path:url(#SVGID_00000150084280995336229140000007060709068611361930_);}
	.st11{clip-path:url(#SVGID_00000061467250973168241100000007704730903391880121_);}
	.st12{clip-path:url(#SVGID_00000173845713195540933080000003636446967205721005_);}
	.st13{clip-path:url(#SVGID_00000016038880310265454450000002800602066763877041_);}
	.st14{clip-path:url(#SVGID_00000008123586908078367540000005535750909035877562_);}
	.st15{fill:#1D333E;}
</style>
<sodipodi:namedview  bordercolor="#666666" borderopacity="1" gridtolerance="10" guidetolerance="10" id="namedview4" inkscape:pageopacity="0" inkscape:pageshadow="2" inkscape:window-height="480" inkscape:window-width="640" objecttolerance="10" pagecolor="#ffffff">
	</sodipodi:namedview>
<g id="g10" transform="matrix(1.3333333,0,0,-1.3333333,0,921.54667)" inkscape:groupmode="layer" inkscape:label="ink_ext_XXXXXX">
	<g id="g12" transform="scale(0.1)">
		<path id="path14" class="st0" d="M5099.7,4193C4866.8,2591.7,3968.4,1666.3,2573,1666.3C722.6,1666.3-227.3,2955.7,46.4,4193
			c301.3,1362.5,1561,886,2221.4,2115.3C3159.9,7969,5340.5,5849.2,5099.7,4193"/>
		<path id="path16" class="st1" d="M4836.2,5245.1L4394,2445.7c-24.6-156-167.3-249.4-319.2-209l-2243.6,596.8
			c-151.9,40.4-254.7,199.1-230,355.1l442.2,2799.4c24.6,156,167.3,249.4,319.2,209l2243.6-596.8
			C4758.1,5559.8,4860.9,5401,4836.2,5245.1"/>
		<path id="path18" class="st2" d="M4315.1,2796.1l-20.9-132.5c-24.6-156-167.3-249.4-319.2-209l-2243.6,596.8
			c-151.9,40.4-254.7,199.1-230,355.1l20.9,132.5c24.6,156,167.5,250.5,319.3,210.1l2243.6-596.8
			C4237.1,3111.9,4339.7,2952.1,4315.1,2796.1"/>
		<path id="path20" class="st3" d="M2291.7,6192.5c-45.9,0-90-12.8-128.3-37.7c-57.2-37.3-95-97.3-106.4-169.1l-442.3-2799.4
			c-23.5-148.7,75.2-301.1,220-339.6L4078.4,2250c69.3-18.4,138.8-8.2,195.6,28.7c57.2,37.3,95,97.4,106.4,169.2l442.2,2799.4
			c23.5,148.8-75.2,301.1-220,339.7l-2243.6,596.7C2336.5,6189.6,2313.9,6192.5,2291.7,6192.5 M4145.8,2213.4
			c-24.5,0-49.5,3.3-74.5,10l-2243.6,596.8c-158,42-265.7,208.3-240.1,370.6l442.2,2799.4c12.6,79.6,54.7,146.4,118.6,187.9
			c63.4,41.3,140.8,52.7,217.8,32.2l2243.6-596.8c158-42,265.8-208.3,240.1-370.6l-442.2-2799.4c-12.6-79.6-54.7-146.4-118.6-188
			C4246.2,2227.7,4197,2213.4,4145.8,2213.4"/>
		<path id="path22" class="st4" d="M3861.4,3624.3c-30.5,0-61.9,4-93.5,12.4l-1115.8,296.8c-12.6,21.3-25.9,42.5-39.1,63.8
			c149.3,83.8,298.6,167.7,376.8,250c1.2,1.3,2.4,2.5,3.6,3.8c51.9-67.9,124.3-119.7,208.6-142.1c30.1-8,59.8-11.8,88.8-11.8
			c155.2,0,286.6,110,312.8,275.8c30.9,195.5-97.9,395.7-289.3,446.6c-29.9,7.9-59.4,11.7-88.2,11.7
			c-154.9,0-287.1-109.7-313.1-274.6c-8.9-56.4-4.6-113,10.6-166.4c-3.3-0.4-6.6-0.8-10-1.2c-150.8-19.8-448.4-128.3-619.2-241.3
			c-53.5,85-78.5,188.3-62.3,290.5l90.6,573.8c27.8,175.6,167.8,292,332.5,292c30.7,0,62.4-4.1,94.2-12.5l62.4-16.6l17.4,110
			c9.3,58.6,56.5,98.4,112.3,98.4c10.3,0,20.9-1.4,31.6-4.2l716.7-190.6c68.6-18.3,114.6-90.6,103.7-160.1l-17.4-110l72.8-19.4
			l5.2,33.1c3,18.9,18.1,31.4,35.8,31.4c3.3,0,6.7-0.4,10.1-1.4l160.2-42.6c21.8-5.8,36.7-28.7,33.1-51.1l-7.9-50.2
			c140.1-87.4,225.7-259.3,199-428.1l-90.6-573.8C4165.8,3740.8,4025.7,3624.3,3861.4,3624.3"/>
		<path id="path24" class="st3" d="M3744.3,3520.8c-32.1,0-64.8,4.3-97.4,13L3270,3634l7.1,26.6l376.8-100.2
			c93.3-24.8,187.1-10.9,264.1,39.2c77.8,50.6,129.1,132.1,144.5,229.4l90.7,573.8c24.9,157.6-54.3,328-192.7,414.3l-7.7,4.8
			l9.4,59.3c2.4,15.3-8.2,31.6-23.1,35.6l-160.2,42.6c-6.5,1.7-13.3,0.9-18.7-2.6c-5.4-3.5-9-9.3-10.1-16.3l-7.6-48.2l-99.7,26.5
			l19.4,122.4c10,63.3-32,128.2-93.6,144.6l-716.7,190.6c-28.9,7.5-58.1,3.4-81.9-12.1c-24.1-15.7-40-40.9-44.8-71l-19.8-125.1
			l-77.2,20.6c-93.9,24.8-188.1,11.1-265.3-39.2c-77.7-50.6-128.9-132-144.3-229.2l-27.2,4.3c16.6,105,72.1,193.1,156.5,248
			c83.8,54.5,185.9,69.8,287.5,42.7l47.6-12.7l15.1,95c6,37.9,26.2,69.8,56.9,89.8c30.5,19.8,67.4,25.5,104.1,15.6l716.7-190.6
			c74.9-19.9,125.9-98.7,113.7-175.5L3674,4939l46-12.3l2.9,18c2.3,14.8,10.2,27.3,22.3,35.1c11.9,7.8,26.4,10.1,40.8,6.1
			l160.2-42.6c28.9-7.6,47.9-36.9,43.2-66.6l-6.5-41.3c144.9-94.7,224.1-269.1,197.5-437.1l-90.7-573.8
			c-16.6-105.1-72.2-193.2-156.6-248.2C3876.5,3539.7,3811.6,3520.8,3744.3,3520.8"/>
		<path id="path26" class="st2" d="M3423.8,4420.6c-4.9-31-33.9-50-64.1-42l-56.2,14.9l-9.1-57.7c-4.9-31-32.9-50.3-63-42.2
			c-30.1,8-51.1,40.3-46.2,71.3l9.1,57.7l-56.2,14.9c-30.2,8-51.1,40.3-46.2,71.3c4.9,31,33.8,48.9,63.9,40.9l56.2-14.9l9.1,57.7
			c4.9,31,33.9,50,64.1,42c30.2-8,50-40,45.1-71l-9.1-57.7l56.2-15C3407.6,4482.8,3428.7,4451.5,3423.8,4420.6"/>
		<path id="path28" class="st1" d="M3879.4,2777.2l-304.6,81c-34.2,9.1-57.5,45-51.9,80.1c5.6,35.1,37.8,56.3,72,47.2l304.6-81
			c34.2-9.1,57.4-45,51.9-80.1C3945.8,2789.3,3913.6,2768.1,3879.4,2777.2"/>
		<path id="path32" class="st1" d="M2152.4,3349.2c146.2,9.9,292.3,19.8,400.3,77.8c108,58,177.8,164,181.5,267
			c3.7,103.1-58.8,203.2-121.2,303.3c149.3,83.8,298.6,167.7,376.8,250c69.6,73.2,82.9,145.3-29,145.3c-13.8,0-29.6-1.1-47.4-3.4
			c-161.7-21.2-492.1-144.4-654-265.8c-161.9-121.3-155.2-240.7-524.5-414.2C1365.6,3535.6,620.4,3308,383.7,3025.2
			c-222.4-265.7,4-580,346.8-580c22.1,0,44.7,1.3,67.7,4C1177.8,2494,1665.1,2921.6,2152.4,3349.2"/>
		<path id="path34" class="st5" d="M344.5,2636.6c-23,35.4-38.1,71.7-45.2,108.9c0.6-1,1.2-1.9,1.8-2.9
			C308.8,2705.2,323.6,2669.5,344.5,2636.6"/>
		<path id="path36" class="st6" d="M301.1,2742.7c-0.6,1-1.2,1.9-1.8,2.9c-4.8,25.3-6,50.9-3.4,77
			C293.9,2795.4,295.8,2768.6,301.1,2742.7 M382.6,3023.9c0.3,0.4,0.5,0.7,0.8,1.1c0.5,0.6,1.1,1.2,1.6,1.8
			c-0.5-0.5-0.9-1.1-1.3-1.6C383.3,3024.8,383,3024.4,382.6,3023.9 M534.5,3158c63.6,45.5,137.8,89.4,222.5,132.1
			c21.4,15.5,99.9,52.4,235.5,110.7C821.3,3325.7,658.3,3244.8,534.5,3158 M1170.2,3475.8c36.4,15.2,75.1,31.2,116.2,48.2
			c0.3-0.2,0.6-0.5,0.8-0.7C1248.6,3507.7,1209.4,3491.9,1170.2,3475.8"/>
		<path id="path38" class="st4" d="M423.8,2548.6L423.8,2548.6c-31.9,25.4-57.3,54.5-78.8,87.4c-0.2,0.2-0.3,0.5-0.4,0.7
			c-20.9,32.9-35.7,68.6-43.3,106c-5.3,25.9-7.2,52.7-5.3,79.9c6.3,64.6,35.1,131.7,86.8,201.4c0.4,0.4,0.7,0.9,1.1,1.3
			c0.4,0.5,0.9,1.1,1.3,1.6c40.6,45.3,90.5,88.9,149.4,131.1c123.8,86.8,286.8,167.7,458.1,242.8c51.1,22,110.3,47,177.7,75.1
			c39.2,16.1,78.4,31.9,117,47.4c50.4-45,98-100.2,143.7-165.6c115.5-174.8,188.7-319.5,217.8-437l0,0
			c-163.3,145.1-288.2,197.6-380.6,197.6c-157.7,0-220.2-153.3-215.5-260.6c5.9-139.4-114.9-185.7-234.8-185.7
			c-32.1,0-64.2,3.3-93.7,9.1c-13.4,2.5-27.4,3.8-41.7,3.8C585.2,2684.8,472,2628.8,423.8,2548.6"/>
		<g id="g40">
			<g>
				<defs>
					<path id="SVGID_1_" d="M1648.7,2920.7v-0.9c-129.5-104.3-238.4-185.1-327.6-242.4c-184.9-112.8-292.9-171-324.8-175.7
						c-68.5-27.2-135.2-44.2-198-52.6c-22.5-2.8-46-3.8-68.5-3.8c-77.9,0-153.9,17.9-229,53.6l-61.9,37.6c-4.7,3.8-10.3,7.5-15,12.2
						c55.4,92.1,196.2,152.2,300.4,132.5c139.9-27.2,336,0,328.5,176.7C1045.1,3027.8,1206.6,3313.5,1648.7,2920.7"/>
				</defs>
				<clipPath id="SVGID_00000158029884509981924770000008376674462598527882_">
					<use xlink:href="#SVGID_1_"  style="overflow:visible;"/>
				</clipPath>
				<g id="g42" style="clip-path:url(#SVGID_00000158029884509981924770000008376674462598527882_);">
					<g>
						<defs>
							<path id="SVGID_00000008865682510024009210000000136761723645378715_" d="M729.7,2445.2c-8.4,0-16.8,0.2-25.2,0.6
								c8.6-0.4,17.2-0.6,25.9-0.6c22.1,0,44.7,1.3,67.7,4c7.6,0.9,15.4,2,23.1,3.2c-7.7-1.3-15.4-2.4-23.1-3.5
								C775.7,2446.1,752.3,2445.2,729.7,2445.2 M910,2472.3c59.2,17,120.6,41.6,183.8,72.6c-49.8-26.7-82.3-41.1-97.5-43.3
								C967.2,2490,938.4,2480.3,910,2472.3"/>
						</defs>
						<clipPath id="SVGID_00000106119455884879675640000017169745775016483202_">
							<use xlink:href="#SVGID_00000008865682510024009210000000136761723645378715_"  style="overflow:visible;"/>
						</clipPath>
						<g id="g48" style="clip-path:url(#SVGID_00000106119455884879675640000017169745775016483202_);">
							<g id="g54" transform="matrix(404.2,0,0,116.2,695.9,2437.9)">
								
									<image style="overflow:visible;enable-background:new    ;" width="84" height="24" id="image56" xlink:href="C72CC36A.png"  transform="matrix(1.190476e-02 0 0 -4.166668e-02 0 1)">
								</image>
							</g>
						</g>
					</g>
				</g>
			</g>
		</g>
		<g id="g58">
			<g>
				<defs>
					<path id="SVGID_00000071556918851931233470000000459823719740059264_" d="M1648.7,2920.7v-0.9
						c-129.5-104.3-238.4-185.1-327.6-242.4c-184.9-112.8-292.9-171-324.8-175.7c-68.5-27.2-135.2-44.2-198-52.6
						c-22.5-2.8-46-3.8-68.5-3.8c-77.9,0-153.9,17.9-229,53.6l-61.9,37.6c-4.7,3.8-10.3,7.5-15,12.2
						c55.4,92.1,196.2,152.2,300.4,132.5c139.9-27.2,336,0,328.5,176.7C1045.1,3027.8,1206.6,3313.5,1648.7,2920.7"/>
				</defs>
				<clipPath id="SVGID_00000075880309771118407190000008416285526330736058_">
					<use xlink:href="#SVGID_00000071556918851931233470000000459823719740059264_"  style="overflow:visible;"/>
				</clipPath>
				<g id="g60" style="clip-path:url(#SVGID_00000075880309771118407190000008416285526330736058_);">
					<g>
						<defs>
							<path id="SVGID_00000009574313008112464250000010611832137362980741_" d="M440.4,2535.4l-1.6,1c-3.9,3.1-8.5,6.2-12.6,9.9
								C430.8,2542.5,435.5,2538.9,440.4,2535.4"/>
						</defs>
						<clipPath id="SVGID_00000070111617934147520520000012175939669506706349_">
							<use xlink:href="#SVGID_00000009574313008112464250000010611832137362980741_"  style="overflow:visible;"/>
						</clipPath>
						<g id="g66" style="clip-path:url(#SVGID_00000070111617934147520520000012175939669506706349_);">
							<g id="g72" transform="matrix(30.2,0,0,25.2002,416.9,2528.9)">
								
									<image style="overflow:visible;enable-background:new    ;" width="6" height="5" id="image74" xlink:href="C72CC369.png"  transform="matrix(0.1667 0 0 -0.2 0 1)">
								</image>
							</g>
						</g>
					</g>
				</g>
			</g>
		</g>
		<g id="g76">
			<g>
				<defs>
					<path id="SVGID_00000021813330786045847830000011140117190535694998_" d="M1648.7,2920.7v-0.9
						c-129.5-104.3-238.4-185.1-327.6-242.4c-184.9-112.8-292.9-171-324.8-175.7c-68.5-27.2-135.2-44.2-198-52.6
						c-22.5-2.8-46-3.8-68.5-3.8c-77.9,0-153.9,17.9-229,53.6l-61.9,37.6c-4.7,3.8-10.3,7.5-15,12.2
						c55.4,92.1,196.2,152.2,300.4,132.5c139.9-27.2,336,0,328.5,176.7C1045.1,3027.8,1206.6,3313.5,1648.7,2920.7"/>
				</defs>
				<clipPath id="SVGID_00000130617572530511064240000002004674813310773437_">
					<use xlink:href="#SVGID_00000021813330786045847830000011140117190535694998_"  style="overflow:visible;"/>
				</clipPath>
				<g id="g78" style="clip-path:url(#SVGID_00000130617572530511064240000002004674813310773437_);">
					<g>
						<defs>
							<path id="SVGID_00000183238269581793131510000010827904076514528925_" d="M1344.7,2692.7c57,38.4,115,80.3,173.8,124.8
								C1454.3,2768.6,1396.4,2727,1344.7,2692.7"/>
						</defs>
						<clipPath id="SVGID_00000053516934689056018670000011795690494285540485_">
							<use xlink:href="#SVGID_00000183238269581793131510000010827904076514528925_"  style="overflow:visible;"/>
						</clipPath>
						<g id="g84" style="clip-path:url(#SVGID_00000053516934689056018670000011795690494285540485_);">
							<g id="g90" transform="matrix(188.2,0,0,140.2,1338.9,2686.9)">
								
									<image style="overflow:visible;enable-background:new    ;" width="39" height="29" id="image92" xlink:href="C72CC376.png"  transform="matrix(2.564103e-02 0 0 -3.448277e-02 0 1)">
								</image>
							</g>
						</g>
					</g>
				</g>
			</g>
		</g>
		<g id="g94">
			<g>
				<defs>
					<path id="SVGID_00000049941094640268382100000006828620156205939871_" d="M1648.7,2920.7v-0.9
						c-129.5-104.3-238.4-185.1-327.6-242.4c-184.9-112.8-292.9-171-324.8-175.7c-68.5-27.2-135.2-44.2-198-52.6
						c-22.5-2.8-46-3.8-68.5-3.8c-77.9,0-153.9,17.9-229,53.6l-61.9,37.6c-4.7,3.8-10.3,7.5-15,12.2
						c55.4,92.1,196.2,152.2,300.4,132.5c139.9-27.2,336,0,328.5,176.7C1045.1,3027.8,1206.6,3313.5,1648.7,2920.7"/>
				</defs>
				<clipPath id="SVGID_00000142176990574654476300000001735956172508460189_">
					<use xlink:href="#SVGID_00000049941094640268382100000006828620156205939871_"  style="overflow:visible;"/>
				</clipPath>
				<g id="g96" style="clip-path:url(#SVGID_00000142176990574654476300000001735956172508460189_);">
					<g>
						<defs>
							<path id="SVGID_00000177459413858528821950000016268558757037988524_" d="M730.5,2445.2c-8.7,0-17.4,0.2-25.9,0.6
								c-69.1,3.4-136.9,21.1-203.9,52.9l-60.3,36.6c-4.8,3.6-9.6,7.2-14.2,10.9c-0.8,0.7-1.6,1.5-2.4,2.3l0,0
								c48.3,80.3,161.4,136.2,258.7,136.2c14.3,0,28.3-1.2,41.7-3.8c29.5-5.8,61.6-9.1,93.7-9.1c119.9,0,240.8,46.4,234.8,185.7
								c-4.7,107.3,57.8,260.6,215.5,260.6c92.3,0,217.3-52.5,380.6-197.6l0,0v-0.9c-46-37-89.4-71.1-130.2-102.2
								c-58.8-44.5-116.7-86.4-173.8-124.8c-8-5.3-15.9-10.4-23.6-15.4c-96.8-59-172.5-103.1-227.2-132.4
								c-63.2-31-124.6-55.6-183.8-72.6c-30.2-8.5-59.8-15.1-88.7-19.9c-7.7-1.2-15.4-2.3-23.1-3.2
								C775.2,2446.5,752.6,2445.2,730.5,2445.2"/>
						</defs>
						<clipPath id="SVGID_00000036930434804054551080000010152971494638140848_">
							<use xlink:href="#SVGID_00000177459413858528821950000016268558757037988524_"  style="overflow:visible;"/>
						</clipPath>
						<g id="g102" style="clip-path:url(#SVGID_00000036930434804054551080000010152971494638140848_);">
							<g id="g108" transform="matrix(1239.2,0,0,687.2,416.9,2437.9)">
								
									<image style="overflow:visible;enable-background:new    ;" width="258" height="143" id="image110" xlink:href="C72CC379.png"  transform="matrix(3.875970e-03 0 0 -6.993008e-03 0 1)">
								</image>
							</g>
						</g>
					</g>
				</g>
			</g>
		</g>
		<path id="path112" class="st3" d="M730.5,2431.4c-187.5,0-352.1,93.1-419.2,237.1c-55.5,119.1-33,252.4,61.8,365.6
			c97.5,116.5,285.9,234.1,592.9,370l11.2-25.2c-303-134.2-488.2-249.4-582.9-362.5c-87.7-104.7-108.8-227.2-58-336.2
			c62.6-134.3,217.4-221.1,394.2-221.1c21.8,0,44,1.3,66.1,3.9l3.2-27.4C776.7,2432.8,753.4,2431.4,730.5,2431.4"/>
		<path id="path114" class="st3" d="M1657.4,2908.7l-17.3,21.6c165.3,132.9,337,283.6,503.2,429.4l3.5,3.1l4.7,0.3
			c142.2,9.7,289.4,19.6,394.7,76.2c102.2,54.8,170.6,155.1,174.2,255.3c3.6,98.7-58.7,198.6-118.9,295.2l-7.6,12.3l12.4,7.4
			c145.9,81.9,296.8,166.6,373.6,247.5c38.2,40.2,56.5,78,47.7,98.5c-8.9,20.7-50.1,28.3-112.2,20.1
			c-162.7-21.3-487.9-143.4-647.6-263.1c-53.3-40-88.1-79.8-124.8-122c-72.4-83.1-154.5-177.3-402-293.7
			c-20.8-9.7-93.1-43.1-116.1-53.3l-11.2,25.3c22.9,10.1,94.8,43.3,115.5,53c242.3,113.9,318.9,201.8,393,286.8
			c37.7,43.3,73.4,84.3,129.1,126c163,122,494.6,246.6,660.6,268.3c78.7,10.4,126.5-2.1,141.2-36.6c13.8-32.3-5.1-77.9-53.1-128.4
			c-77.4-81.5-223.8-164.7-367.5-245.4c60.1-96.6,119.3-196,115.6-298.8c-3.9-109.9-78.1-219.3-188.8-278.7
			c-109.4-58.7-257.5-69.3-401.2-79.1C1992.7,3190.8,1822,3041,1657.4,2908.7"/>
		<path id="path116" class="st2" d="M990.1,5986.8c-178.3-10.3-356.5-20.6-530.2-98c-173.7-77.4-342.8-222,17.3-312.9
			c224.6-56.7,655-92.4,1043.9-92.4c234.7,0,454.2,13,604.3,42.3c398.8,77.9,307,270.7,188.2,377.6
			c-118.8,106.9-264.7,127.7-410.6,148.6c-7.1,49.2-14.2,98.4-51.1,131c-29.4,26-77.8,41.5-121.8,41.5c-11.1,0-21.9-1-32.1-3
			c-50.6-10.1-85.2-46.3-119.7-82.6c-66.2,97.6-132.5,195.2-219.7,219.5c-15.3,4.2-31.2,6.2-47.4,6.2
			c-76.4,0-159.4-44.1-212.9-105.3C1033.3,6185.1,1011.7,6086,990.1,5986.8"/>
		<path id="path118" class="st1" d="M1060.3,5974.1l-24.1,5c18.1,83,36.8,168.5,92.9,232.7c60.4,68.9,158.8,106,229.7,86.4
			l-6.6-23.8c-62.1,17.6-150.3-16.7-204.5-78.9C1095.6,6136.1,1078.4,6057.4,1060.3,5974.1"/>
		<path id="path120" class="st1" d="M1781.4,6098.5c-5.7,13.2-13.1,23.8-22.7,32.3c-21.6,19.1-58.3,31.5-93.4,31.5v24.6
			c40.8,0,83.9-14.8,109.8-37.7c12.4-11,21.9-24.4,29-41.1L1781.4,6098.5"/>
		<path id="path122" class="st15" d="M594,766.4h-49.1l-221.7,316.8h-2.5V766.4h-49.9v404.9h49.1l221.7-317.9h2.5v317.9H594
			L594,766.4"/>
		<path id="path124" class="st15" d="M791.1,763.6c-85,0-139.5,60.3-139.5,154.1c0,94,54.4,154.1,139.5,154.1
			c85,0,139.5-60.1,139.5-154.1C930.5,823.9,876.1,763.6,791.1,763.6 M791.1,1028.2c-56.4,0-89.8-41.3-89.8-110.6
			c0-69.3,33.7-110.6,89.8-110.6c56.4,0,89.8,41.2,89.8,110.6C880.9,987.2,847.5,1028.2,791.1,1028.2"/>
		<path id="path126" class="st15" d="M1105.7,763.6c-83.1,0-138.6,58.9-138.6,154.1c0,92.9,55.3,154.1,138.1,154.1
			c74.9,0,120.7-48.3,126.8-101.3h-48c-6.2,32.3-33.1,57.8-78.6,57.8c-52.8,0-88.7-43.8-88.7-110.6c0-68.7,36.5-110.6,89.2-110.6
			c42.1,0,70.2,19.7,78.6,56.1h48C1224.4,804.3,1174.7,763.6,1105.7,763.6"/>
		<path id="path128" class="st15" d="M1534.8,766.4H1486v184.4c0,48.3-24.4,77.5-72.4,77.5c-51.1,0-82.5-34.8-82.5-87.8v-174h-48.8
			V1189h48.8v-169.2h1.1c18.8,34.2,49.7,51.9,96,51.9c66.2,0,106.6-44.9,106.6-112.3V766.4"/>
		<path id="path130" class="st15" d="M1987.8,766.4h-56.7l-113.7,141.7l-28.6-26.9V766.4H1740V1189h48.8V933.6l135.5,135.2h59.5
			l-132.2-130.8L1987.8,766.4"/>
		<path id="path132" class="st15" d="M2134.9,763.6c-85,0-138.6,59.2-138.6,152.9c0,93.7,53.9,155.2,136.4,155.2
			c80.8,0,131.3-57,131.3-148.4v-19.1h-217.2v-2.8c0-57.5,35.4-94.8,89.2-94.8c37.9,0,67.4,18,76.1,46.3h48.3
			C2251.9,800.9,2199.5,763.6,2134.9,763.6 M2131.8,1028.8c-47.4,0-81.7-34.5-85-85.6h166.4
			C2212.1,994.5,2179.5,1028.8,2131.8,1028.8"/>
		<path id="path134" class="st15" d="M2367,766.4h-48.8v302.5h48.8V766.4 M2342.6,1117.7c-16.8,0-30.9,14-30.9,30.9
			c0,17.1,14,30.9,30.9,30.9c17.1,0,30.9-13.8,30.9-30.9C2373.5,1131.7,2359.7,1117.7,2342.6,1117.7"/>
		<path id="path136" class="st15" d="M2684.2,766.4h-48.8v185.5c0,49.4-23,76.3-70.7,76.3c-49.7,0-79.7-34.2-79.7-86.1V766.4h-48.8
			v302.5h46v-49.1h1.1c19.1,34.2,49.1,51.9,96,51.9c66.5,0,104.9-42.7,104.9-111.4V766.4"/>
		<path id="path138" class="st15" d="M2872.8,763.6c-85,0-138.6,59.2-138.6,152.9c0,93.7,53.9,155.2,136.4,155.2
			c80.8,0,131.3-57,131.3-148.4v-19.1h-217.2v-2.8c0-57.5,35.4-94.8,89.2-94.8c37.9,0,67.4,18,76.1,46.3h48.3
			C2989.8,800.9,2937.3,763.6,2872.8,763.6 M2869.7,1028.8c-47.4,0-81.6-34.5-85-85.6h166.4C2950,994.5,2917.4,1028.8,2869.7,1028.8
			"/>
		<path id="path140" class="st15" d="M3247.5,766.4H3197v404.9h245.8v-45.5h-195.3V986.7h179.3v-44.9h-179.3V766.4"/>
		<path id="path142" class="st15" d="M3613.2,763.6c-85,0-139.5,60.3-139.5,154.1c0,94,54.4,154.1,139.5,154.1
			c85,0,139.5-60.1,139.5-154.1C3752.7,823.9,3698.2,763.6,3613.2,763.6 M3613.2,1028.2c-56.4,0-89.8-41.3-89.8-110.6
			c0-69.3,33.7-110.6,89.8-110.6c56.4,0,89.8,41.2,89.8,110.6C3703,987.2,3669.6,1028.2,3613.2,1028.2"/>
		<path id="path144" class="st15" d="M3896.1,764.1c-54.7,0-76,22.7-76,80.8v183.5H3778v40.4h42.1v68.2h48.8v-68.2h58.9v-40.4h-58.9
			V846.9c0-27.8,11.8-40.4,37.6-40.4c5.9,0,17.7,0.8,21.1,1.4v-41.2C3921.7,765.3,3907.6,764.1,3896.1,764.1"/>
		<path id="path146" class="st15" d="M4098.2,763.6c-85,0-139.5,60.3-139.5,154.1c0,94,54.4,154.1,139.5,154.1
			c85,0,139.5-60.1,139.5-154.1C4237.7,823.9,4183.2,763.6,4098.2,763.6 M4098.2,1028.2c-56.4,0-89.8-41.3-89.8-110.6
			c0-69.3,33.7-110.6,89.8-110.6c56.4,0,89.8,41.2,89.8,110.6C4188,987.2,4154.6,1028.2,4098.2,1028.2"/>
		<path id="path148" class="st15" d="M4392.6,763.6c-65.1,0-112.2,35.4-117,87.8h49.1c5-30.9,30-47.4,71.3-47.4
			c41.2,0,67.1,17.1,67.1,44.3c0,21.3-12.6,32.6-47.1,41.5l-53,13.8c-53,13.8-78.9,40.4-78.9,80.8c0,51.1,46.3,87,112,87
			c61.5,0,108-36.8,110-86.4h-46.9c-3.1,28.3-27.8,46-64.8,46c-37.3,0-62.3-17.7-62.3-44.1c0-20.5,16.3-34.2,51.1-42.9l46-11.5
			c61.2-15.4,83.1-36.8,83.1-80.8C4512.2,800.1,4462.5,763.6,4392.6,763.6"/>
		<path id="path150" class="st15" d="M826.7,108h-48.8v184.4c0,48.3-24.4,77.4-72.4,77.4c-51.1,0-82.5-34.8-82.5-87.8V108h-48.8
			v422.6H623V361.4h1.1c18.8,34.2,49.7,51.9,96,51.9c66.2,0,106.6-44.9,106.6-112.3L826.7,108"/>
		<path id="path152" class="st15" d="M1016.2,105.2c-85,0-139.5,60.3-139.5,154.1c0,94,54.4,154.1,139.5,154.1
			c85,0,139.5-60.1,139.5-154.1C1155.6,165.6,1101.2,105.2,1016.2,105.2 M1016.2,369.8c-56.4,0-89.8-41.2-89.8-110.6
			c0-69.3,33.7-110.6,89.8-110.6c56.4,0,89.8,41.3,89.8,110.6C1106,328.9,1072.6,369.8,1016.2,369.8"/>
		<path id="path154" class="st15" d="M1330.8,105.2c-83.1,0-138.6,58.9-138.6,154.1c0,92.9,55.3,154.1,138.1,154.1
			c74.9,0,120.7-48.3,126.8-101.3h-48c-6.2,32.3-33.1,57.8-78.6,57.8c-52.8,0-88.7-43.8-88.7-110.6c0-68.8,36.5-110.6,89.2-110.6
			c42.1,0,70.2,19.7,78.6,56.1h48C1449.5,145.9,1399.8,105.2,1330.8,105.2"/>
		<path id="path156" class="st15" d="M1759.9,108h-48.8v184.4c0,48.3-24.4,77.4-72.4,77.4c-51.1,0-82.5-34.8-82.5-87.8V108h-48.8
			v422.6h48.8V361.4h1.1c18.8,34.2,49.7,51.9,96,51.9c66.2,0,106.6-44.9,106.6-112.3V108"/>
		<path id="path158" class="st15" d="M1948,0c-68.5,0-118.1,33.1-125.2,83.3h50.8c7.3-25.3,37.3-41,77.2-41
			c52.2,0,85.3,27.2,85.3,70.2v47.4h-1.1c-19.1-32.8-54.7-51.9-97.1-51.9c-76.6,0-128,60.9-128,152.4c0,92.3,51.4,152.9,129.1,152.9
			c42.7,0,78.3-18.8,98.5-51.9h0.8v49.1h46.6V116.4C2084.9,44.1,2033,0,1948,0 M1947.2,369.8c-52.8,0-87.3-43.2-87.3-109.4
			c0-65.9,34.5-108.9,87.3-108.9c53,0,88.9,44.1,88.9,108.9C2036.1,325.5,2000.2,369.8,1947.2,369.8"/>
		<path id="path160" class="st15" d="M2275,105.2c-85,0-138.6,59.2-138.6,152.9s53.9,155.2,136.4,155.2c80.8,0,131.3-57,131.3-148.4
			v-19.1h-217.2V243c0-57.5,35.4-94.9,89.2-94.9c37.9,0,67.3,18,76.1,46.3h48.3C2392,142.6,2339.5,105.2,2275,105.2 M2271.9,370.4
			c-47.4,0-81.7-34.5-85-85.6h166.4C2352.1,336.2,2319.6,370.4,2271.9,370.4"/>
		<path id="path162" class="st15" d="M2458.3,108h48.8v422.6h-48.8V108z"/>
		<path id="path164" class="st15" d="M2664.6,105.2c-61.5,0-102.1,35.4-102.1,89c0,51.9,39.8,82.5,113.4,87l84.8,5v25.3
			c0,37.6-24.7,58.4-69.3,58.4c-35.1,0-61.2-18-67.1-46.6h-46.9c1.4,51.1,51.1,90.1,114.5,90.1c71.6,0,117.6-38.2,117.6-97.7V108
			H2763v52.5h-1.1C2744.8,126.8,2706.9,105.2,2664.6,105.2 M2760.5,247.5l-79.1-5.1c-45.5-2.8-69-19.4-69-48.5
			c0-28.1,24.4-46.3,62.6-46.3c49.4,0,85.6,32,85.6,75.5L2760.5,247.5"/>
		<path id="path166" class="st15" d="M2989,105.2c-76,0-129.6,61.7-129.6,154.1c0,92.3,53.3,154.1,128.5,154.1
			c43.2,0,78-18.8,96.5-51.9h1.1v169.2h48.8V108h-46.6v51.1h-0.9C3067.3,124.3,3032.8,105.2,2989,105.2 M2997.7,369.8
			c-53,0-88.4-43.8-88.4-110.6c0-67.1,35.4-110.6,88.4-110.6c52.5,0,88.1,44.6,88.1,110.6C3085.8,324.9,3050.2,369.8,2997.7,369.8"
			/>
		<path id="path168" class="st15" d="M3327.2,105.2c-85,0-138.6,59.2-138.6,152.9s53.9,155.2,136.4,155.2
			c80.8,0,131.3-57,131.3-148.4v-19.1h-217.2V243c0-57.5,35.4-94.9,89.2-94.9c37.9,0,67.4,18,76,46.3h48.3
			C3444.2,142.6,3391.7,105.2,3327.2,105.2 M3324.1,370.4c-47.4,0-81.6-34.5-85-85.6h166.4C3404.4,336.2,3371.8,370.4,3324.1,370.4"
			/>
		<path id="path170" class="st15" d="M3755.8,108h-48.8v185.5c0,49.4-23,76.3-70.7,76.3c-49.7,0-79.7-34.2-79.7-86.1V108h-48.8
			v302.5h46v-49.1h1.1c19.1,34.2,49.1,51.9,96,51.9c66.5,0,104.9-42.7,104.9-111.4V108"/>
		<path id="path172" class="st15" d="M3860.5,105.2c-18,0-32,14-32,32c0,18.2,14,32,32,32c18.2,0,32-13.8,32-32
			C3892.5,119.3,3878.7,105.2,3860.5,105.2"/>
		<path id="path174" class="st15" d="M4006.4,105.2c-18,0-32,14-32,32c0,18.2,14,32,32,32c18.2,0,32-13.8,32-32
			C4038.4,119.3,4024.7,105.2,4006.4,105.2"/>
		<path id="path176" class="st15" d="M4152.4,105.2c-18,0-32,14-32,32c0,18.2,14,32,32,32c18.2,0,32-13.8,32-32
			C4184.4,119.3,4170.6,105.2,4152.4,105.2"/>
	</g>
</g>
</svg>
