<?xml version="1.0" standalone="no"?>
<!DOCTYPE svg PUBLIC "-//W3C//DTD SVG 20010904//EN"
 "http://www.w3.org/TR/2001/REC-SVG-20010904/DTD/svg10.dtd">
<svg version="1.0" xmlns="http://www.w3.org/2000/svg"
 width="622.000000pt" height="814.000000pt" viewBox="0 0 622.000000 814.000000"
 preserveAspectRatio="xMidYMid meet">

<g transform="translate(0.000000,814.000000) scale(0.100000,-0.100000)"
fill="#333333" stroke="none">
<path d="M2949 8036 c-461 -323 -977 -555 -1556 -699 -430 -108 -828 -155
-1197 -142 l-199 7 6 -459 c12 -780 45 -1269 123 -1811 197 -1374 662 -2483
1455 -3472 310 -387 687 -769 1119 -1136 147 -125 400 -324 411 -324 13 0 307
236 490 394 944 810 1613 1717 2027 2746 410 1020 591 2179 592 3784 l0 278
-197 -7 c-694 -24 -1545 176 -2221 522 -185 94 -361 200 -540 324 -78 55 -148
99 -155 98 -6 0 -78 -47 -158 -103z m276 -301 c732 -481 1661 -778 2546 -813
l174 -7 -3 -270 c-26 -2362 -524 -3885 -1719 -5257 -144 -167 -545 -565 -723
-720 -204 -178 -376 -318 -389 -318 -15 0 -240 185 -418 344 -1210 1076 -1909
2277 -2216 3807 -125 618 -194 1378 -198 2154 l-1 260 169 6 c695 27 1458 227
2093 549 144 73 393 219 500 294 36 25 66 45 68 45 2 1 54 -33 117 -74z"/>
<path d="M3040 7434 c-204 -141 -565 -332 -820 -433 -483 -191 -968 -300
-1480 -331 -91 -5 -171 -10 -177 -10 -24 0 -14 -585 17 -1000 93 -1248 383
-2249 907 -3135 285 -481 628 -912 1079 -1356 225 -222 523 -489 545 -489 5 0
63 48 131 106 533 459 979 954 1315 1459 756 1136 1094 2411 1116 4208 2 178
0 207 -13 207 -67 0 -369 23 -470 35 -696 84 -1397 338 -1968 711 -62 41 -114
74 -115 73 -1 0 -31 -20 -67 -45z"/>
</g>
</svg>
