<?xml version="1.0" encoding="utf-8"?>
<!-- Generator: Adobe Illustrator 25.2.1, SVG Export Plug-In . SVG Version: 6.00 Build 0)  -->
<svg version="1.1" id="Ebene_1" xmlns="http://www.w3.org/2000/svg" xmlns:xlink="http://www.w3.org/1999/xlink" x="0px" y="0px"
	 viewBox="100 0 787 700" style="enable-background:new 0 0 1024 1024;" xml:space="preserve">
<style type="text/css">
	.st0{display:none;fill:url(#SVGID_1_);stroke:#E5E5E5;stroke-width:5;stroke-miterlimit:10;}
	.st1{display:none;opacity:0.26;}
	.st2{display:inline;fill:#0080C9;stroke:#E5E5E5;stroke-width:5;stroke-miterlimit:10;}
	.st3{display:none;}
	.st4{display:inline;}
	.st5{fill:#F9F9F9;stroke:#E5E5E5;stroke-width:5;stroke-miterlimit:10;}
	.st6{display:none;fill:#0D461C;stroke:#E5E5E5;stroke-width:5;stroke-miterlimit:10;}
	.st7{display:none;fill:#1C692F;stroke:#E5E5E5;stroke-width:5;stroke-miterlimit:10;}
	.st8{display:none;fill:#005CA8;stroke:#E5E5E5;stroke-width:5;stroke-miterlimit:10;}
	.st9{display:none;fill:#E20613;stroke:#E5E5E5;stroke-width:5;stroke-miterlimit:10;}
	.st10{display:none;fill:url(#SVGID_2_);stroke:#E5E5E5;stroke-width:5;stroke-miterlimit:10;}
	.st11{display:none;fill-rule:evenodd;clip-rule:evenodd;fill:url(#SVGID_3_);stroke:#E5E5E5;stroke-width:5;stroke-miterlimit:10;}
	.st12{display:none;fill-rule:evenodd;clip-rule:evenodd;fill:url(#SVGID_4_);stroke:#E5E5E5;stroke-width:5;stroke-miterlimit:10;}
	.st13{fill:none;stroke:#E5E5E5;stroke-width:5;stroke-miterlimit:10;}
	.st14{display:inline;fill:#FFFFFF;stroke:#E5E5E5;stroke-width:5;stroke-miterlimit:10;}
</style>
<g>
	<g>
		<path class="st13" d="M622.4,141.3c1.1-19.8,2.9-31.5,9.3-43.8c-13.8,0.1-29.1,12.4-34.7,27.8
			C605.8,129.5,614.5,135.5,622.4,141.3z"/>
		<path class="st13" d="M654.7,160.7c5.1-0.8,13.5-3,22.9-3.8c5.1-14.6,2.5-39.5-5.2-45.1c-6,17.2-25.4,24.6-28.2,45.1
			C648.5,159.5,652.1,161.1,654.7,160.7z"/>
		<g>
			<path class="st13" d="M393.8,278.8c25.9,14.9,47.6-9.1,62.8-22.6c13.8-23.4,41.6,3.1,47.4-28.3c2.5-14.3-1.1-29.8-12.9-28.8
				c-5.3,0.5-28.3,10.6-39.8,33.3c0.1,4.2-0.2,8.5-2.1,10.5c-27.7,30.1-38.3,3.1-53.1-0.5c-26-6.3-63.4,10.7-65.9,57
				C340.1,277.1,365.4,262.5,393.8,278.8z"/>
			<path class="st13" d="M393.8,278.8c-3.5-2-6.9-3.5-10.2-4.6c-10.8,10.8-33,33.1-34.6,53.1c19.6-28.4,44.2-16.7,69-44.7
				C410.3,284.4,402.3,283.7,393.8,278.8z"/>
			<path class="st13" d="M320,250.9c20.5-25.4,40.6-20.3,60.2-9.6c5.5-0.5,10.9-0.2,15.8,1c14.8,3.6,25.4,30.6,53.1,0.5
				c1.9-2,2.2-6.3,2.1-10.5c1.8-3.5,3.9-6.7,6.2-9.7c-5.7-43.6-64.1-117-130.1-28.5c50.8-49,74.6,21.2,91.4,35.1
				C401.6,231,353.3,173.8,320,250.9z"/>
		</g>
	</g>
	<g>
		<path class="st13" d="M360.9,497.2c10.8-8.4,22.1-17.4,31.9-21.1c-9.4-1.6-10.9-4-15.8-9.5c16.8-2.3,37-30.2,60.9-54.8
			c-24.8-20-65-32-89.3-39.9c-15-4.9-48.2-48.7-53.9-69.6c1.3-17.4,4.2-37.2,2-49.6c-4.3-19.8-0.5-37-24.4-22.5
			c3.4,14.5-5.8,21-7.5,37.7c-4.2-14.1-15.4-30.7-26.8-9.9c-2.5,7.4-15.3,36,1.7,34.4c7.5-0.7,16.1,3,13.8,11.9
			c-2.7,10.9-10,22.2-6.1,30.6c7.8,14.1,20.7,4,27.1-0.1c5.1-3.2,10.2-0.3,11.8,5.1c3.1,10.1-3.7,18.8-3.9,30.4
			c-0.2,12-2.6,15.4,6.4,18.8c5.7,3.2,10.4-6.6,11.7-14.3c16.4-1.5,13.3,24.4,13,43.8c-0.2,12.5,3.7,18.4,8.9,27.9
			C331.9,463.9,343.9,491.1,360.9,497.2z"/>
		<path class="st13" d="M862.5,203.5c-20.5,23.3-55.5-14.7-102,5c-11.6,4.9-116.8,57.6-103.9,277c12.9,219.4,109.9,348.9,44.9,399.2
			c-20.6,16-50.5-7.7-52-74c-1.8,11.6-12.4,47.3-11.4,48.5c3.4,37.6,31.9,74,68.8,48.1c88.8-62.3-21-256.5-29.5-418.7
			c-8.2-155.3,41.7-237.5,87-260.2c0,0,22.4,92.3,79.1,30c-14.8,9.5-24-4.9-33.1-16.9C825.4,246.4,857,236.9,862.5,203.5z
			 M649.3,807.1c0,1.2,0,2.4,0.1,3.6C649.8,808.4,649.8,807.1,649.3,807.1z"/>
		<g>
			<path class="st5" d="M800.8,321.3c28.8,76-40.6,99.4-85.3,93.5c-52.4-6.9-73.4,10.8-78,43c-1.9,13.8,3,34.8,23.4,41.5
				c-22.7,1.4-40.5-8.6-47-31.3c-16.6-57.8,48.3-97.7,100.3-90.8C776.3,385.3,809.1,372.2,800.8,321.3L800.8,321.3z"/>
			<path class="st5" d="M803.5,414.2c31.2,77.7-40.8,103.8-87.5,99c-54.8-5.6-76.4,13.3-80.6,46.6c-1.8,14.3,3.6,35.9,25,42.2
				c-23.7,2.2-42.3-7.7-49.5-31c-18.2-59.2,48.9-102.3,103.2-96.7C778.9,481,813,466.6,803.5,414.2L803.5,414.2z"/>
			<path class="st5" d="M792.3,518.9c24.1,78.4-36.1,103.4-74.6,97.8c-45.2-6.5-63,13.7-65.1,37c-1.8,14.3,6.5,40.6,40.8,47.3
				c-31.9,11.1-58.4-4.6-63.8-28c-13.7-59.6,42.7-101.7,87.5-95.2C770.4,585.5,798.9,571.5,792.3,518.9L792.3,518.9z"/>
			<path class="st5" d="M764.3,705.3c-16,9.3-26.8,8.8-42.2,5.1c-15.8-3.8-37.2,20.6-33.3,35.5c2.5,9.6,11.4,8.3,19.4,1.7
				c1.6,6.6,3.3,12.9,4.5,18.6c-25.1,24.3-42.9,5.5-43.2-16.1c-0.6-41.1,36.4-86.5,78.5-73.8c10.5,3.2,27.6,4.1,46.6-25.6
				C794.6,650.8,783,696.3,764.3,705.3z"/>
			<path class="st5" d="M760.8,804.5c-13.3,7.7-22.2,7.3-35,4.2c-13.1-3.2-22.9,9.6-22.5,26.8c0.3,11.3,13.2,26.2,20.7,16.6
				l-2.9,17.4c-19.8,15.5-36-8.5-36.3-27.5c-0.5-34.1,27.5-72.2,62.4-61.7c8.7,2.6,22.9,3.4,38.6-21.2
				C786,759.3,776.3,797,760.8,804.5z"/>
		</g>
		<path class="st13" d="M348.5,943c10.7-5.9,19.8-11.6,27.7-17.1c10.7,10.4,35.8-30.9,45.8-41.6c22.4-24.1,51.7,10.2,79.6,13.1
			c14.1-20.5,26.5-37.6,30.1-44.3c10.9-17.7,10.3-47.3-0.4-61.1c-0.8-1.6-1.8-3.2-2.9-4.7c-32.6-0.5-96.7,2.5-106.9,3.4
			c-18.4,1.7-28.7-7.7-46.9,1.7c-7.8,4-11.5,9.6-19.3,13c-24.3,10.7-42.3,26.1-52.6,54.6c-12,42.5-48.5,63.1-48.5,63.1
			c1.3,7.3,18.7,15.7,33.7,2.9c-6.9,12.9-12.7,26.2-12.6,42.6c0,12.5,2.6,21.3,11.2,26.5c15.6,9.5,39.1-8.5,46.3,10.7
			c5.3,14.3,8.2,16.1,3.7,33.4c-5.1,19.6-18.3,39.9-41.4,55.6c-14.9-13.5-26.7-3.8-30.8,7.7c-8.3,16.8,22.5,16.7,16.8,19.5
			c-14.7,5-22.4,32-16.4,43.5c10.7-8.6,14.8-17.7,26-24.9c2.4,8.4-13,28.6,6.4,30.7c10.7-3.5,7.9-22.4,10.3-28.2
			c0.4-9.9,4.4-27.6,18.3-26.4c-6.6,45,19.1,25.1,25.6,12.5c7.4-16.7-3.5-47.8,3.3-50.5c2.5,5.5,10.2,13.4,22.8,4.9
			c0,0-15.9-6-9.2-29.9c6.3-0.6,2.5,19,15,19.5c9.6,0.4,9.1,17.7-6.2,27.7c34.6-9.3,31.9-70.8,19.2-79.6
			c9.9-10.7,14.1,2.9,14.8,22.3c8.4-20.6,3.7-38.7-4.5-54.5c10,4.8,16.9,27.7,30.8,19.9C417.6,997.6,430.7,932.2,348.5,943z"/>
		<path class="st13" d="M624.1,921.3c-14-0.4-20.4-23.7-20.4-23.7c-2.8,17.4-0.2,46.9-35.6,76.5c17.6-27.9,15.5-45.1,14.9-52.1
			c-18.1,59-37.6,48.8-40.4,91.1c39.2,7.6,91.8-63,114.9-5.9c-25.1-14.2-71.7,26.7-98.6,20.4c-4.1,13.5,26,7.5,8.1,26.8
			c-6.1,12.5,50.3-25.5,59.1-3.2c-15.5-6.8-51.6,22.4-66.9,23.8c-2.7,17,56.5-24.6,55.3,11.8c-14.2-16.8-30.2,25.8-62.1,32.6
			c-1.4,10.9,18,4.3,27,3.5c-2.6,20.2-26.9,32.8-43.8,39.2c-0.4,3.9,2.1,12.3,19.1,7.5c-11.6,33.6-44,23.7-55.3,48.2
			c-1.7,4.2,2.9,9.3,6.3,6.9c5.9-3.9,14.5-10.5,16.1-3.9c0.8,3.5-4.8,22.1-8.3,23.3c-6.4,2.3-8.7-8.9-14.8-5
			c-6.5,4.1-9.7-9.8-16-4.8c-7.9,6.1-9.2,15.5-10.5,25.9c3.6,34.3-20.5,30.2-27.6,9.9c-0.6,11.9-9.4,39.1-27.7,30.9
			c-16.3-9.6-2.7-31.9,1.9-42.1c3.9-8.8-17.4,1.8-12.4-6.3c7.6-39,34.9-26.2,50.8-26.8c39-44.3,55.4-66.7,58-80.4
			c2-10.3,0.7-48.4-1.9-76.6c-10.2,4.6-26.4,7.3-38.7-3.8c-0.7,9.6-0.7,20.8-0.1,30.2c-11.9-14.4-11.2-40.4-12.1-51.2
			c-10.3,15.6-13.5,54.1-5.7,75.6c-21.9-27.6-16.9-97-4.1-137.2c12.8-40.2,70.2-113.6,78.8-129.4c10.9-17.7,10.3-47.3-0.4-61.1
			c-21.1-41.3-131.3-49.4-143.1-122.5c4.9-15.1,113.7-181.9,124.8-220.3l14,87.6c32.2,206.1,123.4,207.1,125.7,261.9
			C655.6,867.5,611.6,891.2,624.1,921.3z"/>
		<path class="st5" d="M513.2,809.6c9.9,13.9-7.2,10.5-10,32.2c-1.9,14.7,9.8,24.5,20.4,23.8c3.8-5.6,6.7-9.9,8.1-12.6
			c10.9-17.7,10.3-47.3-0.4-61.1c-5.2-10.2-15.9-18.4-29.2-26.1C500.6,770.6,497.3,787.5,513.2,809.6z"/>
		<path class="st13" d="M458.8,557.7c10.4-51.5,1.4-109.2-71.6-38c-20.3,1.8-113.1,107.9-135.8,120.9c-12.9,7.4-58.1-19.4-78.4,17.7
			c-1.8,14.2-6,15.6,1.9,23.7c9.3,9.6,14-13.6,33.8-3c-1.5,11.3-18.8,16.5-8.3,40.5c3.5,7.9,16.4-0.5,23.6-15.9
			c3,10.8,16.3,8,19.9,1.9c5.9-9.7,2.5-21.1,9.9-29.3c6.1-6.9,6.9-1.9,14.1-6.4c0.4,3.2-6.9,11.9,1.7,20.2
			c12.7-1.1,23.5-23.6,26.6-39.1c8.2-0.7,37.7-18.6,41.1-30.4c11.5,20.2,30.7,50.7,46,55.1C399,676.7,448.3,609.2,458.8,557.7z"/>
		<path class="st5" d="M723.8,179.8c-15.7-5.2-29.3,9.2-52.2,10.6c23.7,8.9,6,57.4,15.3,67.7c-13.3,1.2-16.8-15.1-16.2-24.5
			c-0.4-10.1-6.5,16.6-2.6,27.4c3.9,10.8,3,24.4-7,43.8c-1.6-18.4-2.2-27-6.9-26.7c-0.5,27.1,2.3,57.4-17,93
			c3.8-22.6,4.8-37.5,2.3-47.1c-6.1,29-10,47.6-27.4,78.2c-30.4,46.3-42.1,109.2-42.1,109.2c-3.6-17.8-5.1-42.3-2.7-58.4
			c-8.7,23-20,33.5-28.9,56.3c-7.9,20-1,32.1-3.6,52.8c-19.5,1.8-16.8-27.8-23.4-27.8c-2.7,35.4-8.6,64.8-36.9,83
			c11.6-17.5,14.8-42.5,12.3-53.2c-8,28.1-13,50.6-34.6,67.9c9.9-18.5,5.2-36.7,10.4-49.9c-8.3,6.3-3.4,26.2-14.1,45.1
			c-6.8,12.6-17.7,18.3-22.2,28.3c-0.3-20.8,12.3-26.8,15.7-50c5.3-22.6-4.2-29.3,15.7-59.8c-12.8,10.1-21.1,37.4-20,52.1
			c1.2,14.7-10.4,43.9-32.2,65.7c14.9-35.7-7.1-51.6,7.8-86.1c4.8-9.1,11.2-26,6.3-32.4c-3.7,30.5-14.4,26.6-20.5,55.9
			c-6,19.5-30.8,2.8-43.7,30.3c3.9-19.6,9.2-26,20.2-43c18.6-26.7,26-61.6,37.3-71.3c-10.4,2.8-13.1,15.4-19,26.7
			c-25.8,61.8-62.3,81.5-58,128.7c-22.8-75.9,43.2-97.5,58.1-152c0,0-52,49.1-73.8-8.7c14,16.6,47.6-26.2,72.5-35.6
			c-9.4-1.6-10.9-4-15.8-9.5c29.8-4.1,70.6-89.2,123.8-92.8c-44-5.9-23.1-32.5-52.3-23.7c40.7-29.6,53,1.2,69.5-1.3
			c18.8-2.9,19.7-25.7,45-42.3c13-8.5,25.4-19.6,31.5-37.2c-19-6.2-32.8-51.7-58.3-48.3c-15.5,4.1-28.3,49.1-42.6,51
			c-14.3,1.8-37.3-10.8-37.3-15.1c13.6-24.3,41.8,2.8,47.6-28.8c2.5-14.3-1.1-29.8-12.9-28.8c-5.5,0.5-30,11.4-41.1,35.9
			c-5.4,2.8-9-13.6-7.6-20.3c3-0.4,4.7-2.1,7.6-3.1c1.1-8.9-2-14.7-8-18c6.9-18.4,24.8-16,40.6-17.4c15.2-1.4,23.4-16.5,38.8-19.8
			c16.4-3.4,14.3-20.8,40.5-34c32.9-16.5,78.5,40.4,92.7,38.2C668.9,158.5,708.3,145.5,723.8,179.8z"/>
	</g>
	<path class="st5" d="M414.5,1289.5c-6,11.9-4.8,25.7,3.2,31.4c0.5-7.7,5.3-18,9.1-27C425.6,1291.8,417,1289.8,414.5,1289.5z
		 M412.2,1241c-7.5,5.5-11.5,17.3-8.9,27.1c2.9-5.8,9.2-10.9,14.4-15.6C417.8,1250,413.6,1242.8,412.2,1241z M457.9,1276.6
		c-1.9,10.8,2.7,19.3,10.9,19c-1.6-5.3-0.3-14.5,0.5-22.3C467.7,1272.5,460.1,1275.5,457.9,1276.6z M516.5,1239.7
		c-1.6-0.6-7.4-2-8.9-1.1c-1,6.5-1.9,14.1-4.4,18.8C510.1,1256.5,515.8,1248.6,516.5,1239.7z M268.1,1095.5
		c-7.8,3.5-13.3,14.5-12.3,25.4c3.6-5.1,10.2-8.6,15.7-11.9C271.9,1106.4,269,1097.8,268.1,1095.5z M266.7,1144.6
		c-7.4,10.5-8.3,25-1.7,33.2c1.6-7.8,7.7-17,12.5-25.2C276.6,1150.1,269,1145.5,266.7,1144.6z M332.2,1130
		c-1.9,6.4-3.9,13.9-6.9,18.1c6.5,0.9,13-5.5,15-14.4C338.9,1132.6,333.7,1129.6,332.2,1130z M290.7,1156.4
		c-3.4,10.6-0.3,20.7,7.3,22.7c-0.7-5.9,1.9-15,3.8-22.8C300.4,1155,292.8,1155.9,290.7,1156.4z M161.7,689.9
		c3.6-5.2,10.2-8.6,15.7-11.9c0.4-2.5-2.5-11.2-3.4-13.4C166.2,668.1,160.7,679.1,161.7,689.9z M230.1,706.4
		c-0.9,7.7-1.5,16.5-4.1,22.6c7.4-2.9,13.3-13.4,13.8-23.7C238,705,231.6,705.1,230.1,706.4z M203.6,704.6
		c-7.4,10.5-8.3,25-1.7,33.2c1.6-7.8,7.7-17.1,12.5-25.2C213.5,710.1,205.9,705.6,203.6,704.6z M271,682.5
		c-1.9,6.4-3.8,13.9-6.9,18.1c6.5,0.9,13-5.5,15-14.4C277.7,685.1,272.5,682,271,682.5z M263.6,217.2c4.2,4.4,6.1,15.1,8.2,23.9
		c2.3-0.4,11.3-9.3,13.6-12.1C283.6,216.1,274.2,210.7,263.6,217.2z M222.3,285.8c5.6-5.7,14.4-7.7,22-10c1-3.3-0.7-16.4-1.4-20
		C232.5,257.4,223.4,270.4,222.3,285.8z M288.4,374.7c-4.4,3.6-9.4,8.2-13.2,8.7c2.8,7.5,9.6,8.6,15.4,2.8
		C290.5,383.9,289.4,375.9,288.4,374.7z M255.9,333.3c-0.7-2-4-8.6-5.6-9c-4.5,5.8-9.6,12.8-14.2,15.5
		C241.5,344.8,250.2,341.8,255.9,333.3z"/>
	<path class="st13" d="M536.3,144.5c0,0,35.9-13.1,54.2,16.1c-18.7,9.1-31.9,22.7-38,15.8c-3.5-7.1-1.2-24.6-1.2-24.6L536.3,144.5z"
		/>
	<path class="st13" d="M556.7,156.3c-0.4,3.5-2.8,6.4-5.2,6.7c-2.4,0.2-4.1-2.4-3.6-5.9c0.4-3.4,2.8-6.4,5.2-6.6
		C555.5,150.2,557.2,152.8,556.7,156.3z"/>
</g>
</svg>
